{
  "accessors": [
    {
      "name": "Glasses-Mesh_0_positions",
      "componentType": 5126,
      "count": 1862,
      "min": [
        -0.7687879800796509,
        -0.24887000024318695,
        -0.8681039810180664
      ],
      "max": [
        0.7782109975814819,
        0.25847500562667847,
        0.48687300086021423
      ],
      "type": "VEC3",
      "bufferView": 0,
      "byteOffset": 0
    },
    {
      "name": "Glasses-Mesh_0_normals",
      "componentType": 5126,
      "count": 1862,
      "min": [
        -1,
        -0.9999915957450867,
        -0.9999985694885254
      ],
      "max": [
        1,
        0.9999969005584717,
        1
      ],
      "type": "VEC3",
      "bufferView": 1,
      "byteOffset": 0
    },
    {
      "name": "Glasses-Mesh_0_texcoords",
      "componentType": 5126,
      "count": 1862,
      "min": [
        0,
        0.1371999979019165
      ],
      "max": [
        0.9674860239028931,
        1
      ],
      "type": "VEC2",
      "bufferView": 2,
      "byteOffset": 0
    },
    {
      "name": "Glasses-Mesh_0_indices",
      "componentType": 5123,
      "count": 8856,
      "min": [
        0
      ],
      "max": [
        1861
      ],
      "type": "SCALAR",
      "bufferView": 3,
      "byteOffset": 0
    }
  ],
  "asset": {
    "generator": "obj2gltf",
    "version": "2.0"
  },
  "buffers": [
    {
      "name": "oculos",
      "byteLength": 225336,
      "uri": "data:application/octet-stream;base64,"
    }
  ],
  "bufferViews": [
    {
      "name": "bufferView_0",
      "buffer": 0,
      "byteLength": 22344,
      "byteOffset": 0,
      "byteStride": 12,
      "target": 34962
    },
    {
      "name": "bufferView_1",
      "buffer": 0,
      "byteLength": 22344,
      "byteOffset": 22344,
      "byteStride": 12,
      "target": 34962
    },
    {
      "name": "bufferView_2",
      "buffer": 0,
      "byteLength": 14896,
      "byteOffset": 44688,
      "byteStride": 8,
      "target": 34962
    },
    {
      "name": "bufferView_3",
      "buffer": 0,
      "byteLength": 17712,
      "byteOffset": 59584,
      "target": 34963
    },
    {
      "buffer": 0,
      "byteOffset": 77296,
      "byteLength": 148040
    }
  ],
  "images": [
    {
      "name": "oculos",
      "mimeType": "image/jpeg",
      "bufferView": 4
    }
  ],
  "materials": [
    {
      "name": "oculos",
      "pbrMetallicRoughness": {
        "baseColorTexture": {
          "index": 0
        },
        "baseColorFactor": [
          1,
          1,
          1,
          1
        ],
        "metallicFactor": 0,
        "roughnessFactor": 0.775
      },
      "emissiveFactor": [
        0,
        0,
        0
      ],
      "alphaMode": "OPAQUE",
      "doubleSided": false
    }
  ],
  "meshes": [
    {
      "name": "Glasses-Mesh",
      "primitives": [
        {
          "attributes": {
            "POSITION": 0,
            "NORMAL": 1,
            "TEXCOORD_0": 2
          },
          "indices": 3,
          "material": 0,
          "mode": 4
        }
      ]
    }
  ],
  "nodes": [
    {
      "name": "Glasses",
      "mesh": 0
    }
  ],
  "samplers": [
    {
      "wrapS": 10497,
      "wrapT": 10497
    }
  ],
  "scene": 0,
  "scenes": [
    {
      "nodes": [
        0
      ]
    }
  ],
  "textures": [
    {
      "name": "oculos",
      "sampler": 0,
      "source": 0
    }
  ]
}
